<svg width="172" height="1321" viewBox="0 0 172 1321" xmlns="http://www.w3.org/2000/svg"><title>sprite_icons</title><g fill="none" fill-rule="nonzero"><path d="M41.77 132.63c-7-7.51-11.64-16.95-14.33-28.85l2.61-.59c2.58 11.43 7.06 20.47 13.68 27.62l-1.96 1.82z" fill="#4E5D63"/><path d="M31.32 138.41c-7.33-7.92-12.26-17.82-15.08-30.28l8.69-2c2.46 10.88 6.69 19.45 12.93 26.19l-6.54 6.09z" fill="#C5C4C0"/><path fill="#FFF" d="M37.73 146.61l-.36-.38.01-.01zM49.48 159.06l-.03.03-1.19-1.27zM117.11 124.08c-4.43 4.79-17.84 18.32-20.31 20.81H61.48l-13.22 12.93L38 146.91l21.4-18.76h38a.38.38 0 0 1 .36.48c-.74 2.42-2.25 5.33-5.27 5.45-5.83.22-17 0-17.15 0l-.06 2.67c.11 0 11.4.23 17.31 0 3.58-.14 6.33-2.75 7.73-7.34a2.64 2.64 0 0 0 .12-1l2.23-1.77 1 1.17 12-10.72a1.51 1.51 0 0 1 1.35-.36 1.5 1.5 0 0 1 1.08.87 5.43 5.43 0 0 1-.99 6.48z"/><path d="M120.72 116.93a8.12 8.12 0 0 1-1.64 9c-4.9 5.3-20.62 21.12-20.78 21.28l-.39.39H62.58l-12.45 12.13-.65-.67-1.22-1.24 13.22-12.93H96.8c2.47-2.49 15.88-16 20.31-20.81a5.43 5.43 0 0 0 1-6.46 1.5 1.5 0 0 0-1.08-.87 1.51 1.51 0 0 0-1.35.36l-12 10.72-1-1.17-.72-.81 12-10.72a4.19 4.19 0 0 1 3.68-1c.454.097.89.266 1.29.5 4.65-9.68 7.45-21.77 8.45-36.59.273-4 .413-8.17.42-12.51v-1.59-1.1c0-1.48 0-3-.08-4.5-5.59.37-12-4.23-19.47-9.49-8.39-5.91-17.9-12.61-26.95-12.61s-18.57 6.7-26.95 12.61c-7.47 5.26-14 9.85-19.47 9.49 0 1.52-.07 3-.08 4.5v2.69c.09 30.11 6.4 51.1 19.19 63.9l4.51-4h39a3 3 0 0 1 2.45 1.23 2.9 2.9 0 0 1 .59 1.71 2.64 2.64 0 0 1-.12 1c-1.4 4.59-4.15 7.2-7.73 7.34-5.91.23-17.2 0-17.31 0l.06-2.67c.1 0 11.32.22 17.15 0 3-.12 4.53-3 5.27-5.45a.37.37 0 0 0-.36-.48H59.41L38 146.91l-.28-.3-.35-.39-1.15-1.31 15.66-13.72C37.43 116.63 31 92.24 32.17 56.74l.06-1.69 1.63.44c4.58 1.25 11.52-3.64 18.87-8.82 8.71-6.14 18.58-13.1 28.49-13.1s19.77 7 28.49 13.1c7.35 5.18 14.29 10.06 18.86 8.82l1.64-.44v1.69c.93 26.02-2.21 45.72-9.49 60.19z" fill="#000"/><path d="M95.84 77.64L82.3 91.18l-.7-.7-.21-19H82a18.64 18.64 0 0 1 13.84 6.16zM100.74 90.25C100.734 100.6 92.35 108.989 82 109h-.2l-.11-10 .61.61 16.85-16.86a18.44 18.44 0 0 1 1.59 7.5z" fill="#C5C4C0"/><path d="M127.32 78c-1 14.82-3.8 26.91-8.45 36.59a4.38 4.38 0 0 0-1.29-.5 4.19 4.19 0 0 0-3.68 1l-12 10.72.72.81-2.24 1.79a2.9 2.9 0 0 0-.59-1.71 3 3 0 0 0-2.45-1.23H82l-.15-13.81H82a21.41 21.41 0 0 0 19.16-31l7.26-7.26-4.19-4.2-6.5 6.5A21.29 21.29 0 0 0 82 68.84h-.64l-.14-12.93c17.25.02 35.06 22.54 46.1 22.09z" fill="#C5C4C0"/><path d="M127.72 62.84c-4.55.49-11.1-4.11-18-9-8.72-6.14-18.59-13.1-28.49-13.1-9.9 0-19.78 7-28.49 13.1-6.91 4.86-13.46 9.46-18 9 0-1.48 0-3 .08-4.5 5.47.36 12-4.23 19.47-9.49 8.38-5.91 17.89-12.61 27-12.61s18.56 6.7 27 12.61c7.46 5.26 13.88 9.86 19.47 9.49-.08 1.52-.05 3.02-.04 4.5z" fill="#FFF"/><path d="M127.74 65.53h-.73c-5.34 0-11.67-4.46-18.84-9.51-8.39-5.92-17.9-12.62-26.95-12.62s-18.57 6.7-26.95 12.62c-7.18 5-13.5 9.51-18.84 9.51h-.72v-1.44-1.25c4.55.48 11.1-4.12 18-9 8.71-6.14 18.58-13.1 28.49-13.1s19.77 7 28.49 13.1c6.91 4.87 13.46 9.47 18 9v1.1c.05.54.05 1.06.05 1.59zM26.36 37.81a75.59 75.59 0 0 0-5.08 6.12c-.44.6-.88 1.21-1.31 1.82l-.64.92a72.192 72.192 0 0 0-3.55 5.82l-2.35-1.3c1.15-2.07 2.39-4.09 3.69-6l.66-1c.44-.64.89-1.26 1.36-1.88A79.14 79.14 0 0 1 24.39 36l1.97 1.81z" fill="#4E5D63"/><path d="M132.46 147l-1.76-2c30.996-26.837 34.654-73.608 8.207-104.938C112.46 8.732 65.74 4.488 34.08 30.54a76.787 76.787 0 0 0-4.77 4.24l-1.86-1.92c1.58-1.52 3.24-3 4.94-4.39 32.793-26.881 81.094-22.45 108.447 9.95 27.354 32.4 23.623 80.76-8.377 108.58z" fill="#000"/><path d="M126.64 40.36a67.26 67.26 0 0 0-13.54-10.24l1.33-2.32a70.24 70.24 0 0 1 14.08 10.64l-1.87 1.92zM134.48 49.51a50.612 50.612 0 0 0-2.94-3.83 68.87 68.87 0 0 0-2.37-2.72l2-1.81c.85.92 1.67 1.86 2.47 2.83a68.906 68.906 0 0 1 3.06 4l-2.22 1.53zM86.85 164.82h17.82v2.67H86.85zM66.68 164.82h8.91v2.67h-8.91zM29.32 164.82h33.74v2.67H29.32z" fill="#4E5D63"/><path d="M100.74 90.25C100.734 100.6 92.35 108.989 82 109h-.2c-10.2-.096-18.451-8.334-18.563-18.534-.111-10.2 7.957-18.617 18.153-18.936H82a18.64 18.64 0 0 1 13.84 6.13L82.3 91.18l-.7-.7.09 8.49.61.61 16.85-16.86a18.44 18.44 0 0 1 1.59 7.53z" fill="#FFF"/><path d="M108.42 73.45l-4.19-4.2-6.5 6.5A21.29 21.29 0 0 0 82 68.84h-.64c-11.664.345-20.903 9.967-20.775 21.636.128 11.668 9.576 21.085 21.245 21.174H82a21.41 21.41 0 0 0 19.16-31l7.26-7.2zM82 109h-.2c-10.2-.096-18.451-8.334-18.563-18.534-.111-10.2 7.957-18.617 18.153-18.936H82a18.64 18.64 0 0 1 13.84 6.13L82.3 91.18l-.7-.7.09 8.49.61.61 16.85-16.86a18.44 18.44 0 0 1 1.59 7.53C100.734 100.6 92.35 108.989 82 109z" fill="#000"/><path fill="#000" d="M81.69 98.97l-9.54-9.54 4.19-4.2 5.26 5.25zM38.01 146.91l-.01.01-.27-.31z"/><g><path d="M26.68 284.11l-.21 77.3h-2.59V296h-2.67v64.41a3.85 3.85 0 0 1-1.3-2.89v-66.06l4.47-4.85.55-.59.45-.49.37-.4.29-.32.12-.13.27-.29.14-.15.11-.13z" fill="#C5C4C0"/><path fill="#000" d="M26.68 284.11l-.11.11z"/><path d="M63.23 271.46v32.62H33.17c.123-.21.27-.405.44-.58l29.62-32.04zM38.62 320.33V323h8.29v-2.67h-8.29zm11.88 0V323h17.82v-2.67H50.5zm20.17-32.49v2.68h13.48v-2.68H70.67zm18.87 65v2.68h6.78v-2.68h-6.78zm9.08-48.73l.48.82v-.82h-.48zm14.74 44.82l-2.45-2.45-1.91 1.86 4.34 4.34 1.36 1.32v-3.78l-1.34-1.29z" fill="#FFF"/><path d="M107.65 338.69h5.71v-63.52a4.39 4.39 0 0 0-4.15-4.6H65.9v36.19H32.35v70.87a4.62 4.62 0 0 0 4.65 4.61h71.8a4.61 4.61 0 0 0 4.6-4.61v-16.21h-5.71a4.29 4.29 0 0 1-4.28-4.29V343a4.28 4.28 0 0 1 4.24-4.31zm-1.45-64.4a3.53 3.53 0 0 1 3.54 3.53v45.08l-8-13.48-1.57-2.66H75.86v-2.68h22.76l-8-13.56h-1.93v-2.68H89l-8-13.55h25.2zm-35.53 13.55h13.48v2.68H70.67v-2.68zM50.5 320.33h17.82V323H50.5v-2.67zm25 16.24v2.67h-15v-2.67h15zm-36.88-16.24h8.29V323h-8.29v-2.67zm0 16.24h16.9v2.67h-16.9v-2.67zm45.53 18.92H38.62v-2.68h45.53v2.68zm12.17 0h-6.78v-2.68h6.78v2.68zm0-16.25H81v-2.67h15.31l.01 2.67zM72.59 323v-2.67h33.89V323H72.59z" fill="#FFF"/><path fill="#000" d="M114.88 350.42l-.18-.18-1.34-1.34v3.78l1.52 1.52L116 353v-3.78z"/><path d="M116 338.69v-63.52a7.08 7.08 0 0 0-6.83-7.28h-7.44v-4.15a7.07 7.07 0 0 0-6.83-7.28H48.61l-31.23 33.79a7.5 7.5 0 0 0-2 5.12v68.32a6.63 6.63 0 0 0 6.62 6.62h4.54v-2.67h-2.66V296h-2.67v71.51a3.94 3.94 0 0 1-3.13-3.86v-68.28a4.88 4.88 0 0 1 1.26-3.3l.57-.61 4.47-4.85.55-.59.45-.49.37-.4.29-.32.12-.13.27-.29.14-.15.11-.13 23.1-25h45.16a4.41 4.41 0 0 1 4.16 4.61v4.15H62.88l-31.23 33.81a7.51 7.51 0 0 0-2 5.12v70.83a7.28 7.28 0 0 0 7.35 7.28h71.8a7.29 7.29 0 0 0 7.28-7.28v-16.21h-2.68v16.21a4.61 4.61 0 0 1-4.6 4.61H37a4.62 4.62 0 0 1-4.61-4.61v-70.87H65.9v-36.19h43.31a4.39 4.39 0 0 1 4.15 4.6v63.52H116zm-52.77-34.61H33.17c.123-.21.27-.405.44-.58l29.62-32v32.58z" fill="#000"/><path fill="#C5C4C0" d="M99.1 304.08v.82l-.48-.82z"/><path d="M109.74 277.82v45.08l-8-13.48-1.57-2.66h6.28v-2.68h-7.86l-8-13.56h15.88v-2.68H89l-8-13.55h25.2a3.53 3.53 0 0 1 3.54 3.53z" fill="#C5C4C0"/><path fill="#4E5D63" d="M84.28 391.82h17.82v2.67H84.28zM64.11 391.82h8.91v2.67h-8.91zM26.75 391.82h33.74v2.67H26.75zM126.45 267.36a67.73 67.73 0 0 0-13.54-10.24l1.33-2.32a70.81 70.81 0 0 1 14.08 10.64l-1.87 1.92zM134.28 276.51a56.316 56.316 0 0 0-2.93-3.83c-.77-.93-1.57-1.84-2.38-2.73l2-1.8c.85.92 1.67 1.86 2.47 2.83a71.848 71.848 0 0 1 3.05 4l-2.21 1.53z"/><path fill="#000" d="M70.67 287.84h13.48v2.68H70.67zM99.1 304.08v.82l-.48-.82zM88.67 287.84h17.81v2.68H88.67z"/><path fill="#4E5D63" d="M50.5 320.33h17.82V323H50.5z"/><path fill="#000" d="M70.67 287.84h13.48v2.68H70.67z"/><path fill="#4E5D63" d="M38.62 320.33h8.29V323h-8.29z"/><path fill="#000" d="M106.48 304.08v2.68H75.86v-2.68h22.76l.48.82v-.82z"/><path fill="#000" d="M99.1 304.08v.82l-.48-.82zM72.59 320.33h33.89V323H72.59z"/><path d="M130.36 373.92l-1.76-2c27.86-24.212 33.908-65.121 14.244-96.359-19.664-31.237-59.166-43.473-93.044-28.821l-1.06-2.45c35.081-15.161 75.977-2.49 96.34 29.851 20.363 32.34 14.114 74.696-14.72 99.779zM81.01 336.57h15.31v2.67H81.01zM60.49 336.57h14.98v2.67H60.49zM38.62 336.57h16.9v2.67h-16.9zM38.62 352.81h45.53v2.68H38.62z" fill="#000"/><path fill="#4E5D63" d="M89.54 352.81h6.78v2.68h-6.78z"/><path d="M123.41 345.67v11.46a1.61 1.61 0 0 1-1.6 1.61h-14.16c-.89 0-1.61-.72-1.61-1.61V343a1.61 1.61 0 0 1 1.61-1.6h14.16a1.59 1.59 0 0 1 1.36.76l-7.17 7.1-1.16 1.16-.18-.18-1.34-1.34-2.45-2.45-1.87 1.89 4.34 4.34 1.52 1.52 8.55-8.53z" fill="#FFF"/><path d="M124.75 341v3.31l-9.87 9.87-1.52-1.52-4.36-4.32 1.89-1.89 2.45 2.45 1.34 1.34.18.18 1.16-1.16 7.13-7.13 1.5-1.5a1 1 0 0 1 .1.37z" fill="#FFF"/><path d="M125.08 340.22l-1.91 1.91c.157.252.24.543.24.84v2.7l2.68-2.68a4.23 4.23 0 0 0-1.01-2.77z" fill="#000"/><path d="M126.09 343v14.14a4.29 4.29 0 0 1-4.28 4.29h-14.16a4.29 4.29 0 0 1-4.28-4.29V343a4.28 4.28 0 0 1 4.28-4.28h14.16a4.24 4.24 0 0 1 3.27 1.53l-1.91 1.91a1.59 1.59 0 0 0-1.36-.76h-14.16A1.61 1.61 0 0 0 106 343v14.16a1.61 1.61 0 0 0 1.61 1.61h14.16a1.61 1.61 0 0 0 1.6-1.61v-11.49l2.72-2.67z" fill="#000"/><path fill="#4E5D63" d="M135.34 333.74l-20.46 20.46-1.52-1.52-4.34-4.34 1.89-1.89 2.45 2.45 1.34 1.34.18.18 1.16-1.16 7.13-7.13 10.28-10.28z"/></g><g><path d="M30.15 545.47v23.9L22.27 589v-41a2.55 2.55 0 0 1 2.55-2.56l5.33.03zM30.4 568.75v.88h-.25v-.26z" fill="#C5C4C0"/><path d="M113 519.65H83V487l29.62 32c.149.203.276.42.38.65z" fill="#FFF"/><path d="M113.83 522.33v25.81H43.05a6.39 6.39 0 0 0-6 4l-4.24 10.58v-72a4.4 4.4 0 0 1 4.19-4.59h43.28v36.2h33.55z" fill="#FFF"/><path d="M30.15 503.41v2.67h-7.41a4.12 4.12 0 0 0-4 4.22v8.88h-2.66v-8.88a6.79 6.79 0 0 1 6.66-6.89h7.41z" fill="#4E5D63"/><path fill="#000" d="M30.4 568.75v.88h-.25v-.26zM82.95 484.8v.25l-.23-.25zM115.17 549.94h-1.34v-.01z"/><path d="M30.15 569.37v.26h.25v-.88l-.25.62zM121 592.49l-2.48 6.19-1.55 3.87-.72 1.8-1 2.57a.67.67 0 0 1-.06.12 3.76 3.76 0 0 1-3.45 2.2h-10.2a12.47 12.47 0 0 0 1 1.93c.17.25.34.5.52.74h8.57a6.42 6.42 0 0 0 5.42-2.9 6 6 0 0 0 .58-1.09l.6-1.51 4.88-12.18a12.32 12.32 0 0 0-2.11-1.74zM82.95 484.8v.25l-.23-.25zM39.7 503.41h17.82v2.67H39.7zM77.86 535.89h17.82v2.67H77.86zM62.03 503.41h13.48v2.67H62.03zM99.27 535.89h8.29v2.67h-8.29zM39.7 519.65h30.62v2.67H39.7zM39.7 535.89h33.89v2.67H39.7z" fill="#000"/><path fill="#4E5D63" d="M78.94 618.82h17.82v2.67H78.94zM58.77 618.82h8.91v2.67h-8.91zM21.41 618.82h33.74v2.67H21.41z"/><path d="M126.93 606.53c-1.517 7.246-8.609 11.9-15.86 10.41a13.27 13.27 0 0 1-8-5c-.18-.24-.35-.49-.52-.74a12.47 12.47 0 0 1-1-1.93 13.3 13.3 0 0 1-.88-8.15 13.59 13.59 0 0 1 2.89-5.94l-1-.87 3.81-3.19.67 1.15a13.39 13.39 0 0 1 13.96.25 12.32 12.32 0 0 1 2.19 1.74 13.44 13.44 0 0 1 3.74 12.27z" fill="#FFF"/><path fill="#000" d="M107.935 599.842l1.888-1.888 9.822 9.822-1.888 1.888z"/><path fill="#000" d="M107.935 607.776l9.822-9.822 1.888 1.888-9.822 9.822zM156.35 542.43a77.5 77.5 0 0 1-26.67 58.49l-.08-.09a16 16 0 0 0-.78-2.72c27.29-24.5 32.801-65.169 13.017-96.049-19.784-30.88-59.033-42.872-92.697-28.321l-1.07-2.45a77.55 77.55 0 0 1 108.28 71.14z"/><path d="M125.77 494.36a67.26 67.26 0 0 0-13.54-10.24l1.33-2.32a70.24 70.24 0 0 1 14.08 10.64l-1.87 1.92zM133.61 503.51a54.35 54.35 0 0 0-2.94-3.83c-.77-.93-1.56-1.84-2.38-2.73l2-1.8c.84.92 1.66 1.86 2.46 2.83a63.437 63.437 0 0 1 3.06 4l-2.2 1.53z" fill="#4E5D63"/><path d="M16.09 605.8v-.15a.76.76 0 0 0 0 .15zM39.7 503.41h17.82v2.67H39.7zM77.86 535.89h17.82v2.67H77.86z" fill="#000"/><path fill="#4E5D63" d="M62.03 503.41h13.48v2.67H62.03z"/><path fill="#000" d="M39.7 519.65h30.62v2.67H39.7z"/><path fill="#4E5D63" d="M39.7 535.89h33.89v2.67H39.7z"/><path d="M30.15 569.37v.26h.25v-.88l-.25.62zM121 592.49l-2.48 6.19-1.55 3.87-.72 1.8-1 2.57a.67.67 0 0 1-.06.12 3.76 3.76 0 0 1-3.45 2.2h-10.2a12.47 12.47 0 0 0 1 1.93c.17.25.34.5.52.74h8.57a6.42 6.42 0 0 0 5.42-2.9 6 6 0 0 0 .58-1.09l.6-1.51 4.88-12.18a12.32 12.32 0 0 0-2.11-1.74z" fill="#000"/><path d="M126.93 606.53c-1.517 7.246-8.609 11.9-15.86 10.41a13.27 13.27 0 0 1-8-5c-.18-.24-.35-.49-.52-.74a12.47 12.47 0 0 1-1-1.93 13.3 13.3 0 0 1-.88-8.15 13.59 13.59 0 0 1 2.89-5.94l-1-.87 3.81-3.19.67 1.15a13.39 13.39 0 0 1 13.96.25 12.32 12.32 0 0 1 2.19 1.74 13.44 13.44 0 0 1 3.74 12.27z" fill="#FFF"/><path d="M137.59 551a6.47 6.47 0 0 0-5.38-2.82h-2.07V534a7.47 7.47 0 0 0-7.65-7.27h-6v-4.36a7.55 7.55 0 0 0-2-5.12L83.3 483.46H37a7.07 7.07 0 0 0-6.82 7.28v78.63l.25-.62v.88h-.25v-.26L22.27 589l-3.52 8.78v-57.39h-2.67v65.26a6.06 6.06 0 0 0 1.06 3.44 6.44 6.44 0 0 0 5.37 2.82H99.9c.14.25.29.49.45.73a16 16 0 0 0 10.18 6.92 16.64 16.64 0 0 0 3.27.33 16.09 16.09 0 0 0 15.8-19.06 16.29 16.29 0 0 0-5.37-9.24l14-34.89a6.1 6.1 0 0 0-.64-5.7zm-21.09-21.62h6a4.81 4.81 0 0 1 5 4.6v14.16h-11v-18.76zm-3.93-10.32c.17.181.32.379.45.59H83V487l29.57 32.06zM83 484.8v.25l-.23-.25H83zm-50.18 5.94a4.4 4.4 0 0 1 4.18-4.61h43.28v36.2h33.55v25.81H43.05a6.39 6.39 0 0 0-6 4l-4.24 10.58.01-71.98zm102.9 65L122 590a15.81 15.81 0 0 0-4.93-1.91 16.14 16.14 0 0 0-7.9.35 17.65 17.65 0 0 0-1.88.7 16.23 16.23 0 0 0-1.61.82l.68 1.16.67 1.15a13.39 13.39 0 0 1 13.96.25 12.32 12.32 0 0 1 2.19 1.74 13.4 13.4 0 0 1-12.09 22.71 13.27 13.27 0 0 1-8-5c-.18-.24-.35-.49-.52-.74a12.47 12.47 0 0 1-1-1.93 13.3 13.3 0 0 1-.88-8.15 13.59 13.59 0 0 1 2.89-5.94l-1-.87-1-.86a16.12 16.12 0 0 0-3.46 7.13 15.83 15.83 0 0 0 .6 8.69h-76.2a3.81 3.81 0 0 1-3.16-1.65 3.45 3.45 0 0 1-.61-1.94 3.56 3.56 0 0 1 .26-1.31l20.53-51.22a3.78 3.78 0 0 1 3.51-2.31h89.16a3.82 3.82 0 0 1 3.16 1.64 3.43 3.43 0 0 1 .35 3.19v.04z" fill="#000"/><path fill="#C5C4C0" d="M103.84 522.33h7.44v25.81h-7.44z"/><path fill="#000" d="M99.27 535.89h8.29v2.67h-8.29z"/><path fill="#4E5D63" d="M107.935 599.842l1.888-1.888 9.822 9.822-1.888 1.888z"/><path fill="#4E5D63" d="M107.935 607.776l9.822-9.822 1.888 1.888-9.822 9.822z"/><path fill="#4E5D63" d="M107.935 599.842l1.888-1.888 9.822 9.822-1.888 1.888z"/></g><g><path d="M115.15 811.42s2.82-11.15-3.65-21.3h2.38a40 40 0 0 1 9.5 6.63 31.59 31.59 0 0 1 8.31 14.25l-16.54.42z" fill="#C5C4C0"/><path d="M104.87 723a.25.25 0 0 1 0 .1 24.45 24.45 0 0 1-3.28 3.59c-6.79 6.64-14.6 9.17-18.79 9.66a13.2 13.2 0 0 0 1-8.18 2.25 2.25 0 0 0-1.63-1.68 2.2 2.2 0 0 0-2.19.64c-4.83 5.36-13.31 5.65-13.4 5.65v1.44c-1.34.25-2.51.41-3.34.5 3.1-12.84 12.42-22.19 23.42-22.19 2.09.003 4.167.34 6.15 1a24.44 24.44 0 0 1 12 9.37l.06.1z" fill="#FFF"/><path d="M104.84 723.05a.25.25 0 0 1 0 .1 24.45 24.45 0 0 1-3.28 3.59A21 21 0 0 1 90 732.07a.54.54 0 0 1-.52-.77c.51-1 8.3-9.83 3.3-17.72a24.44 24.44 0 0 1 12 9.37s.06.05.06.1z" fill="#C5C4C0"/><path d="M133 720.36a67.38 67.38 0 0 0-13.53-10.24l1.33-2.32a70.74 70.74 0 0 1 14.07 10.64l-1.87 1.92zM140.88 729.51a54.35 54.35 0 0 0-2.94-3.83 68.87 68.87 0 0 0-2.37-2.72l2-1.81c.85.92 1.67 1.86 2.47 2.83a68.906 68.906 0 0 1 3.06 4l-2.22 1.53zM109.69 844.82h17.82v2.67h-17.82zM89.52 844.82h8.91v2.67h-8.91zM52.17 844.82h33.74v2.67H52.17z" fill="#4E5D63"/><path d="M89.48 834.46a25.08 25.08 0 0 0-3.54 2 24.38 24.38 0 0 0-3.41-2 28.56 28.56 0 0 1-5.84-3.75c-4.58-4-7-10.6-7.18-20.14v-2.9c2.08-.23 4.36-1.7 6.91-3.34 3-2 6.5-4.18 9.65-4.18 3.15 0 6.6 2.22 9.65 4.18 2.55 1.64 4.82 3.11 6.9 3.34.38 19.99-7.42 23.91-13.14 26.79z" fill="#FFF"/><path d="M70 833.64a21.1 21.1 0 0 1-5.93-10.09l2.57-.72a18.41 18.41 0 0 0 5.17 8.84L70 833.64zM86.67 709.9c-15 0-27.18 15.33-27.18 34.17 0 18.84 12.19 34.17 27.18 34.17s27.18-15.33 27.18-34.17c0-18.84-12.19-34.17-27.18-34.17zm0 65.67c-13.52 0-24.51-14.13-24.51-31.5a39.62 39.62 0 0 1 1.09-9.3c3.1-12.84 12.42-22.19 23.42-22.19 2.09.003 4.167.34 6.15 1a24.44 24.44 0 0 1 12 9.37v.06a.25.25 0 0 1 0 .1 24.45 24.45 0 0 1-3.28 3.59c-6.79 6.64-14.6 9.17-18.79 9.66a13.2 13.2 0 0 0 1-8.18 2.25 2.25 0 0 0-1.63-1.68 2.2 2.2 0 0 0-2.19.64c-4.83 5.36-13.31 5.65-13.4 5.65v2.67c.38 0 9-.28 14.68-5.87a11.17 11.17 0 0 1-1.21 6.32 2.19 2.19 0 0 0 .1 2.21 2.26 2.26 0 0 0 1.89 1h.14c.58 0 13.86-1 24.22-13.74a37.55 37.55 0 0 1 4.79 18.68c.03 17.38-10.96 31.51-24.47 31.51zM38 816.25v.77h-2.75c.04-1.08.16-2.157.36-3.22.76.84 1.55 1.65 2.39 2.45z" fill="#000"/><path d="M104.84 723.05a.25.25 0 0 1 0 .1 24.45 24.45 0 0 1-3.28 3.59 38.32 38.32 0 0 0 3.28-3.69zM35.18 826.92c-25.227-22.045-33.46-57.79-20.42-88.65l2.46 1c-12.589 29.807-4.643 64.327 19.71 85.63l-1.75 2.02z" fill="#000"/><path d="M20.57 732.41l-2.35-1.29c1.15-2.07 2.39-4.1 3.69-6l.66-1 2.19 1.54-.64.92a76.067 76.067 0 0 0-3.55 5.83z" fill="#4E5D63"/><path d="M24.76 725.67l-2.19-1.53c.44-.63.9-1.26 1.36-1.88a79.14 79.14 0 0 1 5.25-6.34l2 1.81a75.59 75.59 0 0 0-5.08 6.12c-.47.6-.91 1.21-1.34 1.82z" fill="#4E5D63"/><path d="M137.25 826.92l-1.76-2c30.996-26.837 34.654-73.608 8.207-104.938-26.447-31.33-73.168-35.574-104.827-9.522a73.832 73.832 0 0 0-4.77 4.25l-1.86-1.92c1.58-1.53 3.24-3 4.94-4.4 32.793-26.881 81.094-22.45 108.447 9.95 27.354 32.4 23.623 80.76-8.377 108.58z" fill="#000"/><path d="M41.18 819.25l-1.75 2a70.92 70.92 0 0 1-15.67-19.48l2.34-1.28a68.31 68.31 0 0 0 9.51 13.29c.76.84 1.55 1.65 2.36 2.45a60.97 60.97 0 0 0 3.21 3.02z" fill="#4E5D63"/><path d="M135.32 817h-2.67v-.26a27 27 0 0 0-.95-5.79 31.59 31.59 0 0 0-8.31-14.25 40 40 0 0 0-9.5-6.63h-13.07v-2.68h6.41a72.83 72.83 0 0 0-22-3 72.73 72.73 0 0 0-21.74 3H94v2.68H56.79a34.51 34.51 0 0 0-13 10.73A31.46 31.46 0 0 0 38 816.25c-.81-.8-1.6-1.61-2.36-2.45 1.52-8.71 9.35-32 49.67-32 11.79 0 20.8 2 27.69 5 .21.06 22 8.59 22.32 30.2z" fill="#000"/><path d="M85.91 836.47a24.38 24.38 0 0 0-3.41-2 28.56 28.56 0 0 1-5.84-3.75c-4.58-4-7-10.6-7.18-20.14 4-.05 9.86-7.32 16.13-7.32l.16 17.8v3.62l.14 11.79z" fill="#C5C4C0"/><path fill="#4E5D63" d="M85.9 824.74l-6.03-5.44 1.78-1.98 4.2 3.77 11.64-11.07 1.84 1.94z"/><path d="M105.21 806.21l-.06-1.64-1.6.4c-1.39.35-3.94-1.31-6.43-2.91-3.35-2.16-7.15-4.6-11.09-4.6-3.94 0-7.74 2.44-11.1 4.6-2.48 1.6-5 3.26-6.43 2.91l-1.6-.4-.06 1.64c-.47 12.71 2.17 21.37 8.07 26.5a31.31 31.31 0 0 0 6.35 4.1A14.87 14.87 0 0 1 85 839.2l1 1 1-1a14.37 14.37 0 0 1 3.79-2.35c6.02-3.09 15.26-7.75 14.42-30.64zM82.5 834.44a28.56 28.56 0 0 1-5.84-3.75c-4.58-4-7-10.6-7.18-20.14v-2.9c2.08-.23 4.36-1.7 6.91-3.34 3-2 6.5-4.18 9.65-4.18 3.15 0 6.6 2.22 9.65 4.18 2.55 1.64 4.82 3.11 6.9 3.34.4 20-7.38 23.93-13.1 26.81a25.08 25.08 0 0 0-3.54 2 24.38 24.38 0 0 0-3.45-2.02z" fill="#000"/></g><g transform="translate(8 917)"><path d="M65.41 53.3L37.93 69.54V55.3a2 2 0 0 1 2-2h25.48z" fill="#C5C4C0"/><path d="M103.92 78.24a13.07 13.07 0 0 1-22.3 9.23 12.44 12.44 0 0 1-2-2.55H87a3.08 3.08 0 0 1-.29-1.33 3.13 3.13 0 0 1 .29-1.34h-8.58a12.79 12.79 0 0 1-.63-4A13.41 13.41 0 0 1 78 75.7h2.35a4.59 4.59 0 0 1 0-2.68h-1.48a13.07 13.07 0 0 1 25 5.22h.05z" fill="#FFF"/><path d="M76.3 78.24a13.41 13.41 0 0 1 .23-2.54H75a16.2 16.2 0 0 0 .3 6.54h1.57a14.55 14.55 0 0 1-.57-4zm25.91-11.36A16.07 16.07 0 0 0 75.66 73h1.61a14.55 14.55 0 1 1 3.3 15.5 14.94 14.94 0 0 1-2.65-3.6h-1.68a16.06 16.06 0 0 0 26 4.67 15.89 15.89 0 0 0 4.7-11.35 16 16 0 0 0-4.73-11.34z" fill="#FFF"/><path d="M103.92 78.24a13.07 13.07 0 0 1-22.3 9.23 12.44 12.44 0 0 1-2-2.55H87a3.08 3.08 0 0 1-.29-1.33 3.13 3.13 0 0 1 .29-1.34h-8.58a12.79 12.79 0 0 1-.63-4A13.41 13.41 0 0 1 78 75.7h2.35a4.59 4.59 0 0 1 0-2.68h-1.48a13.07 13.07 0 0 1 25 5.22h.05zM105.23 90.39L103 92.61l-.91-.91c.4-.33.79-.69 1.16-1.06.37-.37.73-.76 1.06-1.16l.92.91zM113.13 100.51a1.46 1.46 0 0 1-1.13.39 2.18 2.18 0 0 1-1.34-.63l-6.6-6.61 2.22-2.22 6.61 6.61c.734.62.84 1.71.24 2.46z" fill="#FFF"/><path d="M125.59 30.28A67.45 67.45 0 0 0 112.05 20l1.33-2.32a70.13 70.13 0 0 1 14.07 10.65l-1.86 1.95zM133.43 39.43a58.684 58.684 0 0 0-2.94-3.83c-.77-.93-1.56-1.84-2.38-2.73l2-1.8c.85.92 1.67 1.87 2.47 2.83a54.853 54.853 0 0 1 3 4l-2.15 1.53z" fill="#4E5D63"/><path d="M129.25 136.92l-1.76-2c30.996-26.837 34.654-73.608 8.207-104.938C109.25-1.348 62.53-5.592 30.87 20.46a74.489 74.489 0 0 0-4.77 4.25l-1.86-1.92c1.57-1.52 3.23-3 4.94-4.4 32.793-26.881 81.094-22.45 108.447 9.95 27.354 32.4 23.623 80.76-8.377 108.58z" fill="#000"/><path fill="#4E5D63" d="M101.69 154.82h17.82v2.67h-17.82zM81.52 154.82h8.91v2.67h-8.91zM44.17 154.82h33.74v2.67H44.17z"/><path d="M27.18 136.92C1.953 114.875-6.28 79.13 6.76 48.27l2.46 1c-12.589 29.807-4.643 64.327 19.71 85.63l-1.75 2.02zM12.57 42.41l-2.35-1.29c1.14-2 2.37-4.07 3.69-6l.66-1 2.19 1.54-.64.92c-1.27 1.9-2.46 3.85-3.55 5.83z" fill="#000"/><path d="M16.76 35.67l-2.19-1.53c.44-.63.9-1.26 1.36-1.88a79.14 79.14 0 0 1 5.25-6.34l2 1.81a75.59 75.59 0 0 0-5.08 6.12c-.47.6-.91 1.21-1.34 1.82z" fill="#000"/><path d="M31.42 131.26a71.06 71.06 0 0 1-15.66-19.48l2.34-1.28a68.65 68.65 0 0 0 15.08 18.75l-1.76 2.01z" fill="#4E5D63"/><path d="M122.88 109.17v4.54a4.6 4.6 0 0 1-4.6 4.6H39.41a4.6 4.6 0 0 1-4.6-4.6v-4.54h88.07z" fill="#FFF"/><path fill="#4E5D63" d="M38.68 41.23h57.6v2.67h-57.6z"/><path d="M118.28 47.46H39.41a7.29 7.29 0 0 0-7.28 7.27v59a7.29 7.29 0 0 0 7.28 7.27h33.13l-2.86 7.94h-6a1.34 1.34 0 1 0 0 2.68H94a1.34 1.34 0 1 0 0-2.68h-4.88L86.26 121h32a7.29 7.29 0 0 0 7.28-7.27v-59a7.29 7.29 0 0 0-7.26-7.27zm-83.47 7.27a4.61 4.61 0 0 1 4.6-4.6h78.87a4.61 4.61 0 0 1 4.6 4.6v51.76H34.81V54.73zm51.47 74.19H72.52l2.87-7.92h8l2.89 7.92zm36.6-15.21a4.6 4.6 0 0 1-4.6 4.6H39.41a4.6 4.6 0 0 1-4.6-4.6v-4.54h88.07v4.54zM56.08 134.57h45.54v2.67H56.08z" fill="#000"/><path fill="#4E5D63" d="M114.92 56.99h2.67v18.56h-2.67zM114.92 82.05h2.67v8.35h-2.67z"/><path d="M87.61 82.25v2.67H87a3.08 3.08 0 0 1-.29-1.33 3.13 3.13 0 0 1 .29-1.34h.61zM82.13 73v2.7h-1.75a4.59 4.59 0 0 1 0-2.68l1.75-.02z" fill="#000"/><circle fill="#FFF" cx="84.76" cy="74.36" r="3.24"/><path d="M84.76 69.78A4.61 4.61 0 0 0 80.38 73a4.58 4.58 0 1 0 4.38-3.24v.02zm0 6.49a1.91 1.91 0 1 1-.02-3.82 1.91 1.91 0 0 1 .02 3.82z" fill="#4E5D63"/><path d="M61.18 110.61v.57a2.56 2.56 0 0 0 2.56 2.55h59.1v-3.12H61.18z" fill="#C5C4C0"/><path d="M79.93 110.61a2.93 2.93 0 0 0-2.18 0 3 3 0 0 0-1.92 2.8v.33a3 3 0 0 0 6 0v-.33a3 3 0 0 0-1.9-2.8zm-1.09 4.33a1.52 1.52 0 0 1-1.49-1.2 1.24 1.24 0 0 1 0-.33 1.53 1.53 0 1 1 3.06 0c.015.11.015.22 0 .33a1.51 1.51 0 0 1-1.57 1.2z" fill="#4E5D63"/><path d="M102.72 66.34c-6.567-6.558-17.206-6.553-23.767.011s-6.561 17.204 0 23.768c6.56 6.564 17.2 6.569 23.767.011a16.79 16.79 0 0 0 0-23.79zM100.62 88a13.8 13.8 0 1 1 0-19.51 13.77 13.77 0 0 1 0 19.51z" fill="#C5C4C0"/><path d="M113.94 97l-8.71-8.71A17.54 17.54 0 1 0 74.1 73h-1.51l-3.35 3.36H41.47v2.68h28.87l3.12-3.12c-.1.763-.15 1.53-.15 2.3a17.25 17.25 0 0 0 .46 4h-32.3v2.67h33.16a17.15 17.15 0 0 0 3.82 5.72 17.56 17.56 0 0 0 19.12 3.81 16 16 0 0 0 3.34-1.84l8.7 8.71a3.57 3.57 0 0 0 2.5 1.07 2.93 2.93 0 0 0 2.07-.83 3.25 3.25 0 0 0-.24-4.53zM74.79 78.24c.004-.85.074-1.7.21-2.54h1.54a13.41 13.41 0 0 0-.23 2.54c0 1.353.188 2.7.56 4h-1.58a16.2 16.2 0 0 1-.5-4zM90.85 94.3a16.14 16.14 0 0 1-14.61-9.38h1.68a14.94 14.94 0 0 0 2.65 3.6A14.53 14.53 0 1 0 77.27 73h-1.61a16.06 16.06 0 0 1 31.25 5.22 15.89 15.89 0 0 1-4.7 11.35 16 16 0 0 1-11.36 4.73zM80.18 74.36a4.52 4.52 0 0 1 .2-1.34h-1.51a13.07 13.07 0 1 1 2.75 14.45 12.44 12.44 0 0 1-2-2.55H87a3.08 3.08 0 0 1-.29-1.33 3.13 3.13 0 0 1 .29-1.34h-8.58a12.79 12.79 0 0 1-.63-4A13.41 13.41 0 0 1 78 75.7h2.35a4.52 4.52 0 0 1-.17-1.34zM102.1 91.7c.4-.33.79-.69 1.16-1.06.37-.37.73-.76 1.06-1.16l.91.91-2.23 2.22-.9-.91zm11 8.81a1.46 1.46 0 0 1-1.13.39 2.18 2.18 0 0 1-1.34-.63l-6.6-6.61 2.22-2.22 6.61 6.61a1.77 1.77 0 0 1 .27 2.46h-.03z" fill="#000"/><circle fill="#FFF" cx="90.01" cy="83.98" r="3.24"/><path d="M90 79.4a4.61 4.61 0 0 0-4.38 3.24A4.58 4.58 0 1 0 90 79.4zm0 6.49a1.91 1.91 0 1 1-.02-3.82 1.91 1.91 0 0 1 .02 3.82z" fill="#4E5D63"/></g><g><path d="M80.9 1144.93a76.94 76.94 0 0 0-30.78 6.35l1.06 2.45c33.263-14.374 72.046-2.853 92.067 27.35 20.02 30.204 15.527 70.411-10.667 95.45v-7.7a3.36 3.36 0 0 0-3.35-3.36h-19.41v-8.17a7.25 7.25 0 0 1 6.71-7.45h.26a7.23 7.23 0 0 1 7 7.46v3a1.34 1.34 0 1 0 2.68 0v-3a10 10 0 0 0-8-10v-48.46l2.86 3.15a5 5 0 0 1 1.23 3.31v24.2h2.67v-24.18a7.55 7.55 0 0 0-1.93-5.11l-4.84-5.34v-13a7.25 7.25 0 0 0-7.27-7.21h-11l-7.51-8.29H47.21a7 7 0 0 0-6.72 7.28v1h-1.11a7.26 7.26 0 0 0-7.28 7.21v95.22a7.25 7.25 0 0 0 7.28 7.21h57.09v-2.67H39.38a4.57 4.57 0 0 1-4.6-4.54v-95.17a4.58 4.58 0 0 1 4.6-4.54h71.81a4.58 4.58 0 0 1 4.6 4.54v65.3a10 10 0 0 0-8.64 10.08v8.17h-2.8a3.37 3.37 0 0 0-3.36 3.36v18.75a3.37 3.37 0 0 0 3.36 3.36h24.88a3.36 3.36 0 0 0 3.35-3.36v-7.43c23.94-21.421 32.178-55.393 20.71-85.4-11.47-30.008-40.266-49.826-72.39-49.82zm-37.74 29.78v-1a4.36 4.36 0 0 1 4.05-4.6h44.27l5.09 5.61-53.41-.01zm86.75 112.87a.69.69 0 0 1-.68.69h-24.88a.68.68 0 0 1-.68-.69v-18.75a.68.68 0 0 1 .68-.69h24.88a.69.69 0 0 1 .68.69v18.75z" fill="#000"/><path d="M129.23 1268.14h-24.88a.68.68 0 0 0-.68.69v18.75a.68.68 0 0 0 .68.69h24.88a.69.69 0 0 0 .68-.69v-18.75a.69.69 0 0 0-.68-.69zm-15.82 13.94v-3.51a4.55 4.55 0 0 1-1.22-3.12 4.61 4.61 0 1 1 8.18 2.9v3.73a3.5 3.5 0 1 1-7 0h.04zm15.28 3.62a1.44 1.44 0 0 1-1.44 1.44h-8.52l10-7.19-.04 5.75zM41.75 1232.39h23.69v2.68H41.75zM41.75 1248.9h23.69v2.67H41.75zM41.75 1199.64h30.62v2.68H41.75zM41.75 1215.89h30.62v2.67H41.75zM70.92 1232.39h23.7v2.68h-23.7zM70.92 1248.9h23.7v2.67h-23.7zM100.99 1275.55v7.47h-4.52zM107.15 1265.36v.11h-.06zM101.23 1232.39h8.29v2.68h-8.29zM106.18 1189.78l-10.31 9.41-3.66 3.34-5.27-4.82 1.8-1.97 3.47 3.17 2.27-2.07 9.9-9.03zM106.18 1206.28l-3.98 3.63-9.99 9.12-5.27-4.82 1.8-1.97 3.47 3.17 8.61-7.85 3.56-3.25zM20.46 1273.38v.01l-.01-.01zM23.5 1267.92l-3.19 5.23-3.18-5.23zM24.37 1195v2.9h-8.11v-2.9a2 2 0 0 1 2-2h4a2 2 0 0 1 2.11 2zM16.26 1199.39h8.11v1.84h-8.11zM16.26 1202.71h8.11v62.98h-8.11z" fill="#FFF"/><path d="M23.67 1190.94v-1.4a1.49 1.49 0 0 0-1.49-1.49h-3.74a1.49 1.49 0 0 0-1.44 1.49v1.4a4.29 4.29 0 0 0-3 4.06v72.13l4.5 7.4a2.05 2.05 0 0 0 1.78 1 2 2 0 0 0 1.76-1l4.52-7.43V1195a4.28 4.28 0 0 0-2.89-4.06zm-5.23-1.4h3.75v1.18h-3.76l.01-1.18zm1.85 83.61l-3.18-5.23h6.39l-3.21 5.23zm4.06-7.46h-8.09v-63h8.11l-.02 63zm0-64.46h-8.09v-1.84h8.11l-.02 1.84zm0-3.33h-8.09v-2.9a2 2 0 0 1 2-2h4a2 2 0 0 1 2 2l.09 2.9z" fill="#000"/><path fill="#FFF" d="M41.75 1232.39h23.69v2.68H41.75zM41.75 1248.9h23.69v2.67H41.75zM41.75 1199.64h30.62v2.68H41.75zM41.75 1215.89h30.62v2.67H41.75zM70.92 1232.39h23.7v2.68h-23.7zM70.92 1248.9h23.7v2.67h-23.7zM101.23 1232.39h8.29v2.68h-8.29zM106.18 1189.78l-10.31 9.41-3.66 3.34-5.27-4.82 1.8-1.97 3.47 3.17 2.27-2.07 9.9-9.03zM106.18 1206.28l-3.98 3.63-9.99 9.12-5.27-4.82 1.8-1.97 3.47 3.17 8.61-7.85 3.56-3.25z"/><path fill="#4E5D63" d="M87.65 1298.82h17.82v2.67H87.65zM67.48 1298.82h8.91v2.67h-8.91zM30.13 1298.82h33.74v2.67H30.13zM127.82 1174.36a67.38 67.38 0 0 0-13.53-10.24l1.32-2.32a70.52 70.52 0 0 1 14.08 10.64l-1.87 1.92zM135.66 1183.51a54.35 54.35 0 0 0-2.94-3.83 68.87 68.87 0 0 0-2.37-2.72l2-1.81c.85.92 1.67 1.86 2.47 2.83 1.06 1.29 2.09 2.62 3.06 4l-2.22 1.53zM122.56 1233.53h2.67v9.53h-2.67z"/><path fill="#000" d="M41.75 1232.39h23.69v2.68H41.75zM70.92 1232.39h23.7v2.68h-23.7zM101.23 1232.39h8.29v2.68h-8.29zM41.75 1248.9h23.69v2.67H41.75zM70.92 1248.9h23.7v2.67h-23.7z"/><path d="M112.94 1183.81v44.27l-10.74-18.17 4-3.63-1.8-2-3.56 3.25-4.95-8.37 10.31-9.41-1.8-2-9.9 9-9.75-16.5h24.75a3.46 3.46 0 0 1 3.44 3.56z" fill="#C5C4C0"/><path fill="#C5C4C0" d="M104.38 1204.31l1.8 1.97-3.98 3.63-1.38-2.35zM106.18 1189.78l-10.31 9.41-1.39-2.35 9.9-9.03z"/><path fill="#000" d="M41.75 1199.64h30.62v2.68H41.75zM41.75 1215.89h30.62v2.67H41.75z"/><path fill="#000" d="M41.75 1199.64h30.62v2.68H41.75z"/><path fill="#4E5D63" d="M106.18 1189.78l-10.31 9.41-3.66 3.34-5.27-4.82 1.8-1.97 3.47 3.17 2.27-2.07 9.9-9.03z"/><path d="M111.19 1177.38H39.38a4.58 4.58 0 0 0-4.6 4.54v95.22a4.57 4.57 0 0 0 4.6 4.54h57.09v1.32l4.52-7.47v-6.72a3.37 3.37 0 0 1 3.36-3.36h2.74l.06-.11v-8.04a10 10 0 0 1 8.64-10.08v-65.3a4.58 4.58 0 0 0-4.6-4.54zm-38.82 22.26v2.68H41.75v-2.68h30.62zm-30.62 16.25h30.62v2.67H41.75v-2.67zm23.69 35.68H41.75v-2.67h23.69v2.67zm0-16.5H41.75v-2.68h23.69v2.68zm29.18 16.5h-23.7v-2.67h23.7v2.67zm0-16.5h-23.7v-2.68h23.7v2.68zm14.9 0h-8.29v-2.68h8.29v2.68zm3.42-7l-10.74-18.16-10 9.12-5.27-4.82 1.8-2 3.47 3.17 8.61-7.85-4.95-8.37-3.66 3.34-5.27-4.82 1.8-2 3.47 3.17 2.27-2.07-9.75-16.5h24.75a3.46 3.46 0 0 1 3.46 3.47l.01 44.32z" fill="#FFF"/><path fill="#4E5D63" d="M106.18 1206.28l-3.98 3.63-9.99 9.12-5.27-4.82 1.8-1.97 3.47 3.17 8.61-7.85 3.56-3.25z"/><path d="M128.69 1280v5.75a1.44 1.44 0 0 1-1.44 1.44h-8.52l9.96-7.19z" fill="#C5C4C0"/><path d="M118.73 1275.45a1.93 1.93 0 0 1-.62 1.41l-.42.39v4.83a.81.81 0 1 1-1.61 0v-4.76l-.53-.4a1.83 1.83 0 0 1-.68-1.47 1.91 1.91 0 0 1 1.91-1.95 2 2 0 0 1 1.95 1.95z" fill="#FFF"/><path d="M116.78 1270.83a4.61 4.61 0 0 0-4.59 4.62 4.55 4.55 0 0 0 1.22 3.12v3.51a3.5 3.5 0 1 0 7 0v-3.73a4.61 4.61 0 0 0-3.59-7.52h-.04zm1.33 6l-.42.39v4.83a.81.81 0 1 1-1.61 0v-4.76l-.53-.4a1.83 1.83 0 0 1-.68-1.47 1.91 1.91 0 0 1 1.91-1.95 2 2 0 0 1 1.95 1.95 1.93 1.93 0 0 1-.62 1.44v-.03z" fill="#4E5D63"/><path fill="#C5C4C0" d="M20.31 1202.73h2.62v61.93h-2.62z"/></g></g></svg>